<?xml version="1.0" encoding="UTF-8"?>
<svg width="700pt" height="700pt" version="1.1" viewBox="0 0 700 700" xmlns="http://www.w3.org/2000/svg">
 <g>
  <path d="m333.32 264.91c2.3438 5.5664 3.7109 14.523-3.0469 25.496-5.9336 9.6406-7.2461 18.672-3.7969 26.145 2.9922 6.5117 8.9609 10.168 13.211 10.832 24.289 3.7461 39.199 25.812 46.516 40.336 7.4727-11.184 4.9336-23.609 0.99609-37.188-2.4141-8.2969-5.1289-17.711 3.2891-22.434 18.445-10.324 31.973-2.3984 42.824 4.0078 6.2109 3.6406 11.812 6.8594 18.531 7.8594-11.289-45.816-52.605-79.941-101.85-79.941-12.672 0-24.762 2.3633-36.016 6.4922 7.7578 3.9766 15.773 9.8711 19.344 18.395z"/>
  <path d="m309.31 408.31c-21-3.8164-30.781-12.199-38.641-18.934-6.2656-5.3555-10.395-8.8555-19.371-8.9258 14.594 40.477 53.27 69.547 98.699 69.547 0.38672 0 0.76953-0.050782 1.1562-0.050782-1.8555-17.816-17.414-37.207-41.844-41.637z"/>
  <path d="m350 516.25c94.43 0 171.25-76.824 171.25-171.25 0-121.24-158.13-291.3-164.87-298.48-3.3086-3.5352-9.4492-3.5352-12.758 0-6.7383 7.1758-164.87 177.24-164.87 298.48-0.015625 94.43 76.809 171.25 171.24 171.25zm0-293.75c67.551 0 122.5 54.949 122.5 122.5 0 67.551-54.949 122.5-122.5 122.5s-122.5-54.949-122.5-122.5c0-67.551 54.949-122.5 122.5-122.5z"/>
  <path d="m246.68 363.14c18.637-1.2773 27.16 5.9141 35.367 12.949 6.9141 5.9141 14.035 12.039 30.379 14.98 33.582 6.1094 53.621 32.551 56.156 57.172 49.055-8.8008 86.418-51.691 86.418-103.25 0-2.5391-0.21094-5.0391-0.38672-7.543-12.617-0.4375-22.312-5.6719-30.172-10.309-9.3086-5.4766-14.453-8.1719-21.578-5.582 0.35156 1.3125 0.76953 2.8008 1.1367 4.0586 4.0234 13.879 12.391 42.77-15.262 64.488-2.2383 1.7656-5.2148 2.293-7.9258 1.4883-2.7305-0.82422-4.8828-2.9219-5.793-5.6367-0.12109-0.36719-12.723-37.414-38.027-41.316-11.008-1.6992-21.387-9.8516-26.441-20.773-5.9492-12.844-4.2539-28 4.7773-42.664 3.0977-5.0391 2.5195-7.8594 1.8203-9.5391-3.0469-7.2812-17.027-12.773-24.324-14.648-28.73 18.762-47.824 51.156-47.824 87.977 0 6.2109 0.64844 12.25 1.6797 18.145z"/>
 </g>
</svg>
